<?xml version="1.0" encoding="UTF-8" standalone="no"?>
<!-- Created with Inkscape (http://www.inkscape.org/) -->

<svg
   xmlns:dc="http://purl.org/dc/elements/1.1/"
   xmlns:cc="http://creativecommons.org/ns#"
   xmlns:rdf="http://www.w3.org/1999/02/22-rdf-syntax-ns#"
   xmlns:svg="http://www.w3.org/2000/svg"
   xmlns="http://www.w3.org/2000/svg"
   xmlns:xlink="http://www.w3.org/1999/xlink"
   xmlns:sodipodi="http://sodipodi.sourceforge.net/DTD/sodipodi-0.dtd"
   xmlns:inkscape="http://www.inkscape.org/namespaces/inkscape"
   width="48px"
   height="48px"
   id="svg7604"
   version="1.1"
   inkscape:version="0.48.5 r10040"
   sodipodi:docname="New document 34">
  <defs
     id="defs7606">
    <radialGradient
       inkscape:collect="always"
       xlink:href="#linearGradient7436"
       id="radialGradient7442"
       cx="55.221241"
       cy="27.000322"
       fx="55.221241"
       fy="27.000322"
       r="7.0797582"
       gradientTransform="matrix(1.0959229,0,0,1.1418116,-28.658415,-8.1900147)"
       gradientUnits="userSpaceOnUse" />
    <linearGradient
       id="linearGradient7436">
      <stop
         style="stop-color:#f940af;stop-opacity:0.66666669;"
         offset="0"
         id="stop7438" />
      <stop
         style="stop-color:#f82aa4;stop-opacity:0;"
         offset="1"
         id="stop7440" />
    </linearGradient>
    <linearGradient
       inkscape:collect="always"
       xlink:href="#linearGradient7266"
       id="linearGradient7272"
       x1="32.786484"
       y1="65.078613"
       x2="63.900902"
       y2="51.900719"
       gradientUnits="userSpaceOnUse"
       gradientTransform="translate(-25.332855,-32.753855)" />
    <linearGradient
       id="linearGradient7266">
      <stop
         style="stop-color:#752253;stop-opacity:0.6036036;"
         offset="0"
         id="stop7268" />
      <stop
         style="stop-color:#fa71c2;stop-opacity:0;"
         offset="1"
         id="stop7270" />
    </linearGradient>
    <linearGradient
       inkscape:collect="always"
       xlink:href="#linearGradient7231"
       id="linearGradient7237"
       x1="82.08773"
       y1="32.350925"
       x2="65.166924"
       y2="50.157158"
       gradientUnits="userSpaceOnUse"
       gradientTransform="matrix(0.95528178,0,0,1,-39.159168,-21.954406)" />
    <linearGradient
       id="linearGradient7231">
      <stop
         style="stop-color:#fdbce2;stop-opacity:1;"
         offset="0"
         id="stop7233" />
      <stop
         style="stop-color:#fa71c2;stop-opacity:0.0990991;"
         offset="1"
         id="stop7235" />
    </linearGradient>
    <linearGradient
       inkscape:collect="always"
       xlink:href="#linearGradient7075"
       id="linearGradient7081"
       x1="16.363638"
       y1="28.435635"
       x2="20.573183"
       y2="25.299271"
       gradientUnits="userSpaceOnUse"
       gradientTransform="translate(-4.3124999,-3.3124997)" />
    <linearGradient
       id="linearGradient7075">
      <stop
         style="stop-color:#fac4a7;stop-opacity:1;"
         offset="0"
         id="stop7077" />
      <stop
         style="stop-color:#fadaca;stop-opacity:0.99082571;"
         offset="1"
         id="stop7079" />
    </linearGradient>
    <linearGradient
       inkscape:collect="always"
       xlink:href="#linearGradient7561"
       id="linearGradient7567"
       x1="8.0839148"
       y1="29.670717"
       x2="48.384251"
       y2="29.045717"
       gradientUnits="userSpaceOnUse"
       spreadMethod="reflect"
       gradientTransform="translate(-4.3124999,-3.3124997)" />
    <linearGradient
       id="linearGradient7561">
      <stop
         style="stop-color:#00b0dd;stop-opacity:1;"
         offset="0"
         id="stop7563" />
      <stop
         style="stop-color:#43d9ff;stop-opacity:0.990991;"
         offset="1"
         id="stop7565" />
    </linearGradient>
  </defs>
  <sodipodi:namedview
     id="base"
     pagecolor="#ffffff"
     bordercolor="#666666"
     borderopacity="1.0"
     inkscape:pageopacity="0.0"
     inkscape:pageshadow="2"
     inkscape:zoom="7"
     inkscape:cx="24"
     inkscape:cy="22.785714"
     inkscape:current-layer="layer1"
     showgrid="true"
     inkscape:grid-bbox="true"
     inkscape:document-units="px"
     inkscape:window-width="1600"
     inkscape:window-height="837"
     inkscape:window-x="-8"
     inkscape:window-y="-8"
     inkscape:window-maximized="1" />
  <metadata
     id="metadata7609">
    <rdf:RDF>
      <cc:Work
         rdf:about="">
        <dc:format>image/svg+xml</dc:format>
        <dc:type
           rdf:resource="http://purl.org/dc/dcmitype/StillImage" />
        <dc:title></dc:title>
      </cc:Work>
    </rdf:RDF>
  </metadata>
  <g
     id="layer1"
     inkscape:label="Layer 1"
     inkscape:groupmode="layer">
    <path
       style="fill:#0197fd;fill-opacity:1;fill-rule:evenodd;stroke:#156278;stroke-width:2;stroke-linejoin:round;stroke-miterlimit:4;stroke-opacity:1;stroke-dasharray:none"
       d="m 17.531084,8.2453363 c -2.286371,0 -4.428018,0.574761 -6.28125,1.59375 -0.0078,0.0043 -0.02348,-0.0043 -0.03125,0 -0.128117,-0.01555 -0.29269,-0.03125 -0.5,-0.03125 -0.9945054,0 -1.6440814,0.3569437 -2.5312504,0.4999997 -0.476482,0.07683 -0.817874,0.392302 -1.0625,0.5625 -0.536131,0.373013 -0.406018,1.600688 0.09375,2.46875 -1.513155,2.021236 -2.406251,4.504526 -2.406251,7.1875 0,6.77804 5.6896724,12.25 12.7187514,12.25 0.757185,0 1.498012,-0.06781 2.21875,-0.1875 -0.601449,2.326325 -0.372875,4.360254 0.59375,4.65625 0.786623,0.240876 1.833066,-0.751219 2.625,-2.34375 1.115456,0.680196 2.368674,1.180124 3.6875,1.46875 -0.0042,1.850287 0.508724,3.247227 1.34375,3.375 0.884182,0.135295 1.839777,-1.21499 2.375,-3.15625 1.639159,-0.155488 3.182192,-0.629942 4.5625,-1.375 0.837364,1.785507 1.973525,2.927982 2.8125,2.65625 1.030133,-0.333646 1.189971,-2.640024 0.375,-5.15625 -0.0031,-0.0097 0.0032,-0.02158 0,-0.03125 1.888903,-2.089406 3.0625,-4.830432 3.0625,-7.84375 0,-1.87308 -0.460341,-3.64709 -1.25,-5.21875 0.02116,-0.0022 0.04086,0.0026 0.0625,0 0.152584,-0.02434 0.321679,-0.04556 0.46875,-0.09375 0.204479,-0.06988 0.387321,-0.149863 0.5625,-0.28125 0.140816,-0.107028 0.278966,-0.2213 0.40625,-0.34375 0.164404,-0.144003 0.306177,-0.302951 0.40625,-0.5 0.05543,-0.117831 0.1322,-0.225858 0.1875,-0.34375 0.06727,-0.14463 0.13422,-0.286986 0.1875,-0.4375 0.05971,-0.180512 0.09785,-0.370763 0.09375,-0.5625 0.005,-0.124548 -0.01441,-0.251997 -0.03125,-0.375 0.01036,-0.01387 -0.0098,-0.0481 0,-0.0625 -0.0018,-0.01002 0.0021,-0.02127 0,-0.03125 0.0043,-0.0065 0.02708,0.0066 0.03125,0 0.107256,-0.174157 0.19966,-0.343733 0.28125,-0.53125 0.07256,-0.162187 0.13683,-0.329427 0.1875,-0.5 0.05534,-0.19016 0.10493,-0.371285 0.15625,-0.5625 0.04081,-0.161961 0.10669,-0.321228 0.1875,-0.46875 0.204741,-0.437409 -0.127601,-0.786128 -0.46875,-0.8125 -0.20469,-0.01582 -0.408406,0.0813 -0.53125,0.34375 -0.109542,0.209966 -0.19181,0.427721 -0.25,0.65625 -0.04891,0.177958 -0.07264,0.35423 -0.125,0.53125 -0.03455,0.113989 -0.107796,0.235124 -0.15625,0.34375 -0.0061,-0.0059 -0.02514,0.0059 -0.03125,0 -0.101257,-0.09481 -0.193832,-0.167512 -0.28125,-0.21875 -0.01263,-0.0076 -0.01828,-0.02404 -0.03125,-0.03125 -0.01231,-0.0057 -0.01893,-0.02554 -0.03125,-0.03125 -0.138028,-0.06684 -0.254523,-0.110648 -0.375,-0.15625 -0.03772,-0.01468 -0.08302,-0.0174 -0.125,-0.03125 -0.06562,-0.02139 -0.126393,-0.04769 -0.1875,-0.0625 -0.07167,-0.01836 -0.145367,-0.02128 -0.21875,-0.03125 -0.03274,-0.0044 -0.06064,-0.02892 -0.09375,-0.03125 -0.04301,-0.005 -0.08191,0.0024 -0.125,0 -0.08618,-0.0048 -0.166228,-0.01187 -0.25,0 -0.03142,0.0045 -0.06303,0.02362 -0.09375,0.03125 -0.03168,0.0074 -0.06009,0.01862 -0.09375,0.03125 -0.05968,0.02253 -0.132502,0.05398 -0.1875,0.09375 -0.04459,0.0385 -0.08295,0.05264 -0.125,0.09375 -0.0048,0.0046 0.0039,0.0273 0,0.03125 -0.0039,0.0039 -0.02848,-0.0032 -0.03125,0 -0.02065,0.02352 -0.01329,0.06747 -0.03125,0.09375 -0.02761,0.04028 -0.07156,0.07521 -0.09375,0.125 -0.004,0.009 0.0039,0.02188 0,0.03125 -0.03993,0.09901 -0.07482,0.207693 -0.09375,0.3125 -0.0039,0.02154 -0.02784,0.04111 -0.03125,0.0625 -0.0024,0.03274 7.57e-4,0.06126 0,0.09375 -7.1e-5,0.01288 -7e-6,0.01404 0,0.03125 -1.13e-4,0.02159 -7.12e-4,0.04107 0,0.0625 8.02e-4,0.03505 0.02864,0.06562 0.03125,0.09375 0.0031,0.0317 -0.0054,0.06258 0,0.09375 0.0032,0.01818 -0.0044,0.04173 0,0.0625 0.0082,0.03854 0.0512,0.0583 0.0625,0.09375 0.0055,0.017 -0.0064,0.04575 0,0.0625 0.0076,0.02008 0.02231,0.0428 0.03125,0.0625 0.03158,0.06847 0.04677,0.12445 0.09375,0.1875 0.0085,0.01193 0.02204,0.01919 0.03125,0.03125 0.0091,0.01232 0.02154,0.0188 0.03125,0.03125 0.06248,0.078 0.12656,0.162344 0.1875,0.21875 0.04126,0.039 0.08381,0.0641 0.125,0.09375 0.01026,0.0073 0.02083,0.02439 0.03125,0.03125 0.0137,0.009 0.02006,0.02435 0.03125,0.03125 0.01933,0.0114 0.04295,0.02166 0.0625,0.03125 0.0076,0.0037 0.02352,-0.0035 0.03125,0 0.01439,0.0069 0.0115,0.02223 0.03125,0.03125 0.03867,0.01766 0.11427,0.04326 0.15625,0.0625 0.100404,0.04409 0.220668,0.07301 0.28125,0.09375 0.02144,0.0075 0.04078,0.02451 0.0625,0.03125 0.03151,0.0083 0.06211,0.02455 0.09375,0.03125 0.05187,0.01101 0.106695,0.02596 0.15625,0.03125 0.03,0.0034 0.06368,-0.0015 0.09375,0 0.06619,9.9e-5 0.187476,0.0044 0.21875,0 0.03746,-0.0051 0.05196,-0.02162 0.09375,-0.03125 0.04179,-0.0096 0.089,-0.0266 0.09375,-0.03125 0.0094,-0.0027 0.02191,0.0028 0.03125,0 -0.0251,0.05683 -0.06754,0.09995 -0.09375,0.15625 -0.05467,0.116505 -0.10147,0.227298 -0.15625,0.34375 -0.03825,0.04152 -0.10612,0.11649 -0.15625,0.15625 -0.112978,0.108043 -0.219549,0.18685 -0.34375,0.28125 -0.08458,0.05128 -0.1885,0.09388 -0.28125,0.125 -0.102273,0.03409 -0.134983,0.04417 -0.25,0.0625 -0.06217,-9e-4 -0.15015,0.01318 -0.1875,0 -0.0091,-0.0028 -0.02215,-0.02845 -0.03125,-0.03125 -0.107476,-0.02806 -0.225971,-0.0176 -0.3125,0 -2.124097,-3.291666 -5.84416,-5.46875 -10.09375,-5.46875 -0.509729,0 -1.007059,0.0327 -1.5,0.09375 -2.321909,-2.981753 -6.022914,-4.9062497 -10.1875,-4.9062497 z m 22.625,7.8437497 c 0.0039,0.0039 0.02885,-5e-4 0.03125,0 0.01011,0.0015 0.0212,-0.0018 0.03125,0 0.05713,0.01072 0.149244,0.03796 0.21875,0.0625 0.08957,0.03436 0.162809,0.08504 0.25,0.125 0.04101,0.01924 0.09748,0.06018 0.09375,0.0625 0.0055,0.0066 0.02502,-0.006 0.03125,0 0.01158,0.01267 0.02725,0.02915 0.03125,0.03125 l -0.0625,0.03125 c -0.03424,0.01106 -0.06496,0.0042 -0.09375,0 -0.01466,-0.0026 -0.04421,-0.02533 -0.0625,-0.03125 -0.03127,-0.01192 -0.063,-0.01805 -0.09375,-0.03125 -0.009,-0.0039 -0.02224,0.004 -0.03125,0 -0.106974,-0.04764 -0.151656,-0.07337 -0.1875,-0.09375 -0.02641,-0.0095 -0.04744,-0.01894 -0.0625,-0.03125 -0.0089,-0.008 -0.04523,-0.03761 -0.0625,-0.0625 -0.0069,-0.01 0.0055,-0.02335 0,-0.03125 -0.003,-0.0046 -0.02792,0.0049 -0.03125,0 -0.0043,-0.0061 6.4e-4,-0.03049 0,-0.03125 z"
       id="path7569-0"
       inkscape:connector-curvature="0" />
    <path
       inkscape:connector-curvature="0"
       id="path7557"
       d="m 17.515166,8.2285533 c -2.286371,0 -4.428018,0.574761 -6.28125,1.59375 -0.0078,0.0043 -0.02348,-0.0043 -0.03125,0 -0.128117,-0.01555 -0.29269,-0.03125 -0.5,-0.03125 -0.9945054,0 -1.6440814,0.3569437 -2.5312504,0.4999997 -0.476482,0.07683 -0.817874,0.392302 -1.0625,0.5625 -0.536131,0.373013 -0.406018,1.600688 0.09375,2.46875 -1.513155,2.021236 -2.406251,4.504526 -2.406251,7.1875 0,6.77804 5.6896724,12.25 12.7187514,12.25 0.757185,0 1.498012,-0.06781 2.21875,-0.1875 -0.601449,2.326325 -0.372875,4.360254 0.59375,4.65625 0.786623,0.240876 1.833066,-0.751219 2.625,-2.34375 1.115456,0.680196 2.368674,1.180124 3.6875,1.46875 -0.0042,1.850287 0.508724,3.247227 1.34375,3.375 0.884182,0.135295 1.839777,-1.21499 2.375,-3.15625 1.639159,-0.155488 3.182192,-0.629942 4.5625,-1.375 0.837364,1.785507 1.973525,2.927982 2.8125,2.65625 1.030133,-0.333646 1.189971,-2.640024 0.375,-5.15625 -0.0031,-0.0097 0.0032,-0.02158 0,-0.03125 1.888903,-2.089406 3.0625,-4.830432 3.0625,-7.84375 0,-1.87308 -0.460341,-3.64709 -1.25,-5.21875 0.02116,-0.0022 0.04086,0.0026 0.0625,0 0.152584,-0.02434 0.321679,-0.04556 0.46875,-0.09375 0.204479,-0.06988 0.387321,-0.149863 0.5625,-0.28125 0.140816,-0.107028 0.278966,-0.2213 0.40625,-0.34375 0.164404,-0.144003 0.306177,-0.302951 0.40625,-0.5 0.05543,-0.117831 0.1322,-0.225858 0.1875,-0.34375 0.06727,-0.14463 0.13422,-0.286986 0.1875,-0.4375 0.05971,-0.180512 0.09785,-0.370763 0.09375,-0.5625 0.005,-0.124548 -0.01441,-0.251997 -0.03125,-0.375 0.01036,-0.01387 -0.0098,-0.0481 0,-0.0625 -0.0018,-0.01002 0.0021,-0.02127 0,-0.03125 0.0043,-0.0065 0.02708,0.0066 0.03125,0 0.107256,-0.174157 0.19966,-0.343733 0.28125,-0.53125 0.07256,-0.162187 0.13683,-0.329427 0.1875,-0.5 0.05534,-0.19016 0.10493,-0.371285 0.15625,-0.5625 0.04081,-0.161961 0.10669,-0.321228 0.1875,-0.46875 0.204741,-0.437409 -0.127601,-0.786128 -0.46875,-0.8125 -0.20469,-0.01582 -0.408406,0.0813 -0.53125,0.34375 -0.109542,0.209966 -0.19181,0.427721 -0.25,0.65625 -0.04891,0.177958 -0.07264,0.35423 -0.125,0.53125 -0.03455,0.113989 -0.107796,0.235124 -0.15625,0.34375 -0.0061,-0.0059 -0.02514,0.0059 -0.03125,0 -0.101257,-0.09481 -0.193832,-0.167512 -0.28125,-0.21875 -0.01263,-0.0076 -0.01828,-0.02404 -0.03125,-0.03125 -0.01231,-0.0057 -0.01893,-0.02554 -0.03125,-0.03125 -0.138028,-0.06684 -0.254523,-0.110648 -0.375,-0.15625 -0.03772,-0.01468 -0.08302,-0.0174 -0.125,-0.03125 -0.06562,-0.02139 -0.126393,-0.04769 -0.1875,-0.0625 -0.07167,-0.01836 -0.145367,-0.02128 -0.21875,-0.03125 -0.03274,-0.0044 -0.06064,-0.02892 -0.09375,-0.03125 -0.04301,-0.005 -0.08191,0.0024 -0.125,0 -0.08618,-0.0048 -0.166228,-0.01187 -0.25,0 -0.03142,0.0045 -0.06303,0.02362 -0.09375,0.03125 -0.03168,0.0074 -0.06009,0.01862 -0.09375,0.03125 -0.05968,0.02253 -0.132502,0.05398 -0.1875,0.09375 -0.04459,0.0385 -0.08295,0.05264 -0.125,0.09375 -0.0048,0.0046 0.0039,0.0273 0,0.03125 -0.0039,0.0039 -0.02848,-0.0032 -0.03125,0 -0.02065,0.02352 -0.01329,0.06747 -0.03125,0.09375 -0.02761,0.04028 -0.07156,0.07521 -0.09375,0.125 -0.004,0.009 0.0039,0.02188 0,0.03125 -0.03993,0.09901 -0.07482,0.207693 -0.09375,0.3125 -0.0039,0.02154 -0.02784,0.04111 -0.03125,0.0625 -0.0024,0.03274 7.57e-4,0.06126 0,0.09375 -7.1e-5,0.01288 -7e-6,0.01404 0,0.03125 -1.13e-4,0.02159 -7.12e-4,0.04107 0,0.0625 8.02e-4,0.03505 0.02864,0.06562 0.03125,0.09375 0.0031,0.0317 -0.0054,0.06258 0,0.09375 0.0032,0.01818 -0.0044,0.04173 0,0.0625 0.0082,0.03854 0.0512,0.0583 0.0625,0.09375 0.0055,0.017 -0.0064,0.04575 0,0.0625 0.0076,0.02008 0.02231,0.0428 0.03125,0.0625 0.03158,0.06847 0.04677,0.12445 0.09375,0.1875 0.0085,0.01193 0.02204,0.01919 0.03125,0.03125 0.0091,0.01232 0.02154,0.0188 0.03125,0.03125 0.06248,0.078 0.12656,0.162344 0.1875,0.21875 0.04126,0.039 0.08381,0.0641 0.125,0.09375 0.01026,0.0073 0.02083,0.02439 0.03125,0.03125 0.0137,0.009 0.02006,0.02435 0.03125,0.03125 0.01933,0.0114 0.04295,0.02166 0.0625,0.03125 0.0076,0.0037 0.02352,-0.0035 0.03125,0 0.01439,0.0069 0.0115,0.02223 0.03125,0.03125 0.03867,0.01766 0.11427,0.04326 0.15625,0.0625 0.100404,0.04409 0.220668,0.07301 0.28125,0.09375 0.02144,0.0075 0.04078,0.02451 0.0625,0.03125 0.03151,0.0083 0.06211,0.02455 0.09375,0.03125 0.05187,0.01101 0.106695,0.02596 0.15625,0.03125 0.03,0.0034 0.06368,-0.0015 0.09375,0 0.06619,9.9e-5 0.187476,0.0044 0.21875,0 0.03746,-0.0051 0.05196,-0.02162 0.09375,-0.03125 0.04179,-0.0096 0.089,-0.0266 0.09375,-0.03125 0.0094,-0.0027 0.02191,0.0028 0.03125,0 -0.0251,0.05683 -0.06754,0.09995 -0.09375,0.15625 -0.05467,0.116505 -0.10147,0.227298 -0.15625,0.34375 -0.03825,0.04152 -0.10612,0.11649 -0.15625,0.15625 -0.112978,0.108043 -0.219549,0.18685 -0.34375,0.28125 -0.08458,0.05128 -0.1885,0.09388 -0.28125,0.125 -0.102273,0.03409 -0.134983,0.04417 -0.25,0.0625 -0.06217,-9e-4 -0.15015,0.01318 -0.1875,0 -0.0091,-0.0028 -0.02215,-0.02845 -0.03125,-0.03125 -0.107476,-0.02806 -0.225971,-0.0176 -0.3125,0 -2.124097,-3.291666 -5.84416,-5.46875 -10.09375,-5.46875 -0.509729,0 -1.007059,0.0327 -1.5,0.09375 -2.321909,-2.981753 -6.022914,-4.9062497 -10.1875,-4.9062497 z m 22.625,7.8437497 c 0.0039,0.0039 0.02885,-5e-4 0.03125,0 0.01011,0.0015 0.0212,-0.0018 0.03125,0 0.05713,0.01072 0.149244,0.03796 0.21875,0.0625 0.08957,0.03436 0.162809,0.08504 0.25,0.125 0.04101,0.01924 0.09748,0.06018 0.09375,0.0625 0.0055,0.0066 0.02502,-0.006 0.03125,0 0.01158,0.01267 0.02725,0.02915 0.03125,0.03125 l -0.0625,0.03125 c -0.03424,0.01106 -0.06496,0.0042 -0.09375,0 -0.01466,-0.0026 -0.04421,-0.02533 -0.0625,-0.03125 -0.03127,-0.01192 -0.063,-0.01805 -0.09375,-0.03125 -0.009,-0.0039 -0.02224,0.004 -0.03125,0 -0.106974,-0.04764 -0.151656,-0.07337 -0.1875,-0.09375 -0.02641,-0.0095 -0.04744,-0.01894 -0.0625,-0.03125 -0.0089,-0.008 -0.04523,-0.03761 -0.0625,-0.0625 -0.0069,-0.01 0.0055,-0.02335 0,-0.03125 -0.003,-0.0046 -0.02792,0.0049 -0.03125,0 -0.0043,-0.0061 6.4e-4,-0.03049 0,-0.03125 z"
       style="fill:#fa71c2;fill-opacity:1;fill-rule:evenodd;stroke:url(#linearGradient7567);stroke-width:1.79999995;stroke-linejoin:round;stroke-miterlimit:4;stroke-opacity:1;stroke-dasharray:none" />
    <path
       sodipodi:type="arc"
       style="fill:#fa71c2;fill-opacity:1;fill-rule:evenodd;stroke:#0088aa;stroke-width:0;stroke-linejoin:round;stroke-miterlimit:4;stroke-opacity:1;stroke-dasharray:none"
       id="path6481"
       sodipodi:cx="22"
       sodipodi:cy="24"
       sodipodi:rx="12.727273"
       sodipodi:ry="12.272727"
       d="M 34.727273,24 A 12.727273,12.272727 0 1 1 9.272727,24 12.727273,12.272727 0 1 1 34.727273,24 z"
       transform="translate(-4.3124999,-3.3124997)" />
    <use
       x="0"
       y="0"
       xlink:href="#path6481"
       id="use6483"
       transform="matrix(0.89642857,0,0,0.95925926,13.513738,4.9791874)"
       width="64"
       height="64"
       style="fill:#fa71c2;fill-opacity:1" />
    <path
       style="fill:#fa71c2;fill-opacity:1;fill-rule:evenodd;stroke:#0088aa;stroke-width:0;stroke-linejoin:round;stroke-miterlimit:4;stroke-opacity:1;stroke-dasharray:none"
       d="m 17.624337,8.2900473 c -7.029079,0 -12.7187514,5.5032097 -12.7187514,12.2812497 0,6.77804 5.6896724,12.25 12.7187514,12.25 0.900025,0 1.777783,-0.07867 2.625,-0.25 2.192621,2.514623 5.435759,4.125 9.0625,4.125 6.603052,0 11.96875,-5.300727 11.96875,-11.8125 0,-6.511773 -5.365698,-11.78125 -11.96875,-11.78125 -0.509729,0 -1.007059,0.0327 -1.5,0.09375 -2.321909,-2.981753 -6.022914,-4.9062497 -10.1875,-4.9062497 z"
       id="path7218"
       inkscape:connector-curvature="0" />
    <path
       style="fill:none;stroke:#000000;stroke-width:0.60000002;stroke-linecap:round;stroke-linejoin:round;stroke-miterlimit:4;stroke-opacity:1;stroke-dasharray:none"
       d="m 9.0965916,17.596591 2.7272724,1.636364 -2.6363634,1.363636"
       id="path7006"
       inkscape:connector-curvature="0" />
    <use
       x="0"
       y="0"
       xlink:href="#path7006"
       id="use7008"
       transform="matrix(-1,0,0,-1,29.829547,38.556819)"
       width="64"
       height="64" />
    <path
       style="fill:#f3b492;fill-opacity:1;fill-rule:evenodd;stroke:#0088aa;stroke-width:0;stroke-linejoin:round;stroke-miterlimit:4;stroke-opacity:1"
       d="m 14.224433,21.011364 c -1.434353,0 -2.607866,0.343263 -2.96875,1.125 0.532866,-0.488219 1.504733,-0.71875 2.65625,-0.71875 1.727257,0 3.15625,0.486228 3.15625,1.65625 0,0.420965 -0.187464,0.926007 -0.5,1.40625 0.502365,-0.587192 0.84375,-1.265538 0.84375,-1.8125 0,-1.170022 -1.460243,-1.65625 -3.1875,-1.65625 z"
       id="path7050"
       inkscape:connector-curvature="0" />
    <path
       style="fill:#fac4a7;fill-opacity:1;fill-rule:evenodd;stroke:#0088aa;stroke-width:0;stroke-linejoin:round;stroke-miterlimit:4;stroke-opacity:1"
       d="m 17.169774,22.979233 c 0,1.170022 -1.400225,3.02645 -3.127501,3.02645 -1.727275,0 -3.127499,-1.856428 -3.127499,-3.02645 0,-1.170022 1.366603,-1.647738 3.093878,-1.647738 1.727257,0 3.161122,0.477716 3.161122,1.647738 z"
       id="path6993"
       inkscape:connector-curvature="0"
       sodipodi:nodetypes="sssss" />
    <path
       sodipodi:nodetypes="sssss"
       inkscape:connector-curvature="0"
       id="path7055"
       d="m 17.169774,22.979233 c 0,1.170022 -1.400225,3.02645 -3.127501,3.02645 -1.727275,0 -3.127499,-1.856428 -3.127499,-3.02645 0,-1.170022 1.366603,-1.647738 3.093878,-1.647738 1.727257,0 3.161122,0.477716 3.161122,1.647738 z"
       style="fill:url(#linearGradient7081);fill-opacity:1;fill-rule:evenodd;stroke:#0088aa;stroke-width:0;stroke-linejoin:round;stroke-miterlimit:4;stroke-opacity:1" />
    <path
       sodipodi:type="arc"
       style="fill:#fac4a7;fill-opacity:1;fill-rule:evenodd;stroke:#c79c85;stroke-width:0.08;stroke-linecap:round;stroke-linejoin:round;stroke-miterlimit:4;stroke-opacity:1;stroke-dasharray:none"
       id="path7085"
       sodipodi:cx="10.478037"
       sodipodi:cy="15.064997"
       sodipodi:rx="1.2856487"
       sodipodi:ry="1.3338605"
       d="m 11.763686,15.064997 a 1.2856487,1.3338605 0 1 1 -2.5712978,0 1.2856487,1.3338605 0 1 1 2.5712978,0 z"
       transform="matrix(0.66910004,0,0,0.66910004,5.6472086,13.612851)" />
    <path
       transform="matrix(0.66910004,0,0,0.66910004,8.1936106,13.612851)"
       d="m 11.763686,15.064997 a 1.2856487,1.3338605 0 1 1 -2.5712978,0 1.2856487,1.3338605 0 1 1 2.5712978,0 z"
       sodipodi:ry="1.3338605"
       sodipodi:rx="1.2856487"
       sodipodi:cy="15.064997"
       sodipodi:cx="10.478037"
       id="path7087"
       style="fill:#fac4a7;fill-opacity:1;fill-rule:evenodd;stroke:#c79c85;stroke-width:0.08;stroke-linecap:round;stroke-linejoin:round;stroke-miterlimit:4;stroke-opacity:1;stroke-dasharray:none"
       sodipodi:type="arc" />
    <path
       style="fill:#fde8dd;fill-opacity:1;fill-rule:evenodd;stroke:#c79c85;stroke-width:0;stroke-linecap:round;stroke-linejoin:round;stroke-miterlimit:4;stroke-opacity:1;stroke-dasharray:none"
       d="m 11.772541,23.82469 c -0.0015,0.0213 0,0.04081 0,0.0625 0,0.492906 0.36866,0.90625 0.84375,0.90625 0.475091,0 0.875,-0.413344 0.875,-0.90625 0,-0.02169 0.0015,-0.0412 0,-0.0625 -0.04628,0.447623 -0.431265,0.8125 -0.875,0.8125 -0.443734,0 -0.797468,-0.364877 -0.84375,-0.8125 z"
       id="path7115"
       inkscape:connector-curvature="0" />
    <path
       style="fill:#fde8dd;fill-opacity:1;fill-rule:evenodd;stroke:#c79c85;stroke-width:0;stroke-linecap:round;stroke-linejoin:round;stroke-miterlimit:4;stroke-opacity:1;stroke-dasharray:none"
       d="m 14.303791,23.82469 c -0.0015,0.0213 0,0.04081 0,0.0625 0,0.492906 0.39991,0.90625 0.875,0.90625 0.475091,0 0.84375,-0.413344 0.84375,-0.90625 0,-0.02169 0.0015,-0.0412 0,-0.0625 -0.04628,0.447623 -0.400015,0.8125 -0.84375,0.8125 -0.443734,0 -0.828718,-0.364877 -0.875,-0.8125 z"
       id="path7117"
       inkscape:connector-curvature="0" />
    <path
       style="fill:#f69865;fill-opacity:1;fill-rule:evenodd;stroke:#cba38d;stroke-width:0;stroke-linecap:round;stroke-linejoin:round;stroke-miterlimit:4;stroke-opacity:1;stroke-dasharray:none"
       d="m 12.686812,22.738904 c -0.410478,0 -0.726707,0.288455 -0.8125,0.6875 0.13059,-0.320327 0.424932,-0.5625 0.78125,-0.5625 0.475091,0 0.875,0.413344 0.875,0.90625 0.0078,-0.04843 0.03125,-0.10551 0.03125,-0.15625 0,-0.492906 -0.399909,-0.875 -0.875,-0.875 z"
       id="path7129"
       inkscape:connector-curvature="0" />
    <path
       style="fill:#f69865;fill-opacity:1;fill-rule:evenodd;stroke:#cba38d;stroke-width:0;stroke-linecap:round;stroke-linejoin:round;stroke-miterlimit:4;stroke-opacity:1;stroke-dasharray:none"
       d="m 15.249312,22.738904 c -0.410478,0 -0.757957,0.288455 -0.84375,0.6875 0.13059,-0.320327 0.456182,-0.5625 0.8125,-0.5625 0.475091,0 0.84375,0.413344 0.84375,0.90625 0.0081,-0.04922 0.03125,-0.104628 0.03125,-0.15625 0,-0.492906 -0.368659,-0.875 -0.84375,-0.875 z"
       id="path7131"
       inkscape:connector-curvature="0" />
    <path
       sodipodi:type="arc"
       style="fill:#fa71c2;fill-opacity:1;fill-rule:evenodd;stroke:#cba38d;stroke-width:0;stroke-linecap:round;stroke-linejoin:round;stroke-miterlimit:4;stroke-opacity:1;stroke-dasharray:none"
       id="path7274-5"
       sodipodi:cx="9.9959183"
       sodipodi:cy="36.03714"
       sodipodi:rx="1.9606142"
       sodipodi:ry="3.2784042"
       d="m 11.956532,36.03714 a 1.9606142,3.2784042 0 1 1 -3.9212279,0 1.9606142,3.2784042 0 1 1 3.9212279,0 z"
       transform="matrix(0.95617499,0.29279581,-0.42771153,1.3967654,27.706105,-20.537552)" />
    <path
       style="fill:url(#linearGradient7237);fill-opacity:1;fill-rule:evenodd;stroke:#0088aa;stroke-width:0;stroke-linejoin:round;stroke-miterlimit:4;stroke-opacity:1;stroke-dasharray:none"
       d="m 17.769655,8.8580943 c -5.681426,0 -10.3999124,3.9629827 -11.7320544,9.2812497 1.949788,-4.146594 6.1074424,-7.03125 10.9558884,-7.03125 3.978353,0 7.513856,1.924497 9.731933,4.90625 0.470898,-0.06105 0.945988,-0.09375 1.432923,-0.09375 6.307775,0 11.433529,5.269477 11.433529,11.78125 0,0.989067 -0.135545,1.956142 -0.358231,2.875 0.72688,-1.552061 1.134397,-3.288571 1.134397,-5.125 0,-6.511773 -5.125754,-11.78125 -11.433529,-11.78125 -0.486935,0 -0.962025,0.0327 -1.432923,0.09375 -2.218077,-2.981753 -5.75358,-4.9062497 -9.731933,-4.9062497 z"
       id="path7226"
       inkscape:connector-curvature="0" />
    <path
       sodipodi:nodetypes="sssssss"
       inkscape:connector-curvature="0"
       id="path7055-4-9"
       d="m 26.342336,12.375058 c 0,1.127169 -0.560725,2.740445 -2.224739,2.740445 -1.066038,0 -1.10015,-2.457505 -1.868228,-3.229757 -0.430839,-0.43318 -1.100934,1.069527 -1.100934,0.664471 0,-1.127169 -0.475047,-2.20138 1.141394,-1.806337 0.895896,0.218948 1.431198,0.438695 2.65971,0.193552 0.745358,-0.148733 1.392797,0.887663 1.392797,1.437626 z"
       style="fill:#fac4a7;fill-opacity:1;fill-rule:evenodd;stroke:#0088aa;stroke-width:0;stroke-linejoin:round;stroke-miterlimit:4;stroke-opacity:1" />
    <path
       style="fill:url(#linearGradient7272);fill-opacity:1;fill-rule:evenodd;stroke:#0088aa;stroke-width:0;stroke-linejoin:round;stroke-miterlimit:4;stroke-opacity:1;stroke-dasharray:none"
       d="m 8.9171446,11.933645 c -2.405298,2.235079 -3.906251,5.368328 -3.906251,8.84375 0,6.77804 5.6896734,12.25 12.7187514,12.25 0.900025,0 1.777783,-0.07867 2.625,-0.25 2.192621,2.514623 5.435759,4.125 9.0625,4.125 3.761871,0 7.148516,-1.72151 9.34375,-4.40625 -2.146647,2.011662 -5.061371,3.25 -8.25,3.25 -3.626741,0 -6.869879,-1.610377 -9.0625,-4.125 -0.847217,0.17133 -1.724975,0.25 -2.625,0.25 -7.029079,0 -12.7187504,-5.47196 -12.7187504,-12.25 0,-2.909363 1.059982,-5.582282 2.8125,-7.6875 z"
       id="path7218-5"
       inkscape:connector-curvature="0" />
    <path
       sodipodi:nodetypes="ssssss"
       inkscape:connector-curvature="0"
       id="path7055-4-8"
       d="m 11.190977,11.799789 c -0.48009,1.21072 -0.471577,2.207622 -2.0864254,2.818644 -1.551166,0.586926 -2.572168,-2.657121 -1.649979,-3.298733 0.244626,-0.170198 0.57178,-0.479858 1.048262,-0.556691 0.887169,-0.143056 1.5389304,-0.501697 2.5334354,-0.501697 1.658476,0 0.568814,0.494156 0.154707,1.538477 z"
       style="fill:#fac4a7;fill-opacity:1;fill-rule:evenodd;stroke:#0088aa;stroke-width:0;stroke-linejoin:round;stroke-miterlimit:4;stroke-opacity:1" />
    <path
       sodipodi:type="arc"
       style="fill:#fa71c2;fill-opacity:1;fill-rule:evenodd;stroke:#cba38d;stroke-width:0;stroke-linecap:round;stroke-linejoin:round;stroke-miterlimit:4;stroke-opacity:1;stroke-dasharray:none"
       id="path7274"
       sodipodi:cx="9.9959183"
       sodipodi:cy="36.03714"
       sodipodi:rx="1.9606142"
       sodipodi:ry="3.2784042"
       d="m 11.956532,36.03714 a 1.9606142,3.2784042 0 1 1 -3.9212279,0 1.9606142,3.2784042 0 1 1 3.9212279,0 z"
       transform="matrix(0.98849452,0.1512567,-0.22095342,1.4439773,26.906715,-18.477812)" />
    <path
       sodipodi:type="arc"
       style="fill:#fa71c2;fill-opacity:1;fill-rule:evenodd;stroke:#cba38d;stroke-width:0;stroke-linecap:round;stroke-linejoin:round;stroke-miterlimit:4;stroke-opacity:1;stroke-dasharray:none"
       id="path7274-58"
       sodipodi:cx="9.9959183"
       sodipodi:cy="36.03714"
       sodipodi:rx="1.9606142"
       sodipodi:ry="3.2784042"
       d="m 11.956532,36.03714 a 1.9606142,3.2784042 0 1 1 -3.9212279,0 1.9606142,3.2784042 0 1 1 3.9212279,0 z"
       transform="matrix(0.95134502,-0.30812766,0.45010805,1.3897099,10.648108,-13.633686)" />
    <path
       style="fill:#fa71c2;fill-opacity:1;fill-rule:evenodd;stroke:#cba38d;stroke-width:0;stroke-linecap:round;stroke-linejoin:round;stroke-miterlimit:4;stroke-opacity:1;stroke-dasharray:none"
       d="m 42.750001,13.78125 c -0.20469,-0.01582 -0.408406,0.0813 -0.53125,0.34375 -0.109542,0.209966 -0.19181,0.427721 -0.25,0.65625 -0.04891,0.177958 -0.07264,0.35423 -0.125,0.53125 -0.03455,0.113989 -0.107796,0.235124 -0.15625,0.34375 -0.0061,-0.0059 -0.02514,0.0059 -0.03125,0 -0.101257,-0.09481 -0.193832,-0.167512 -0.28125,-0.21875 -0.01263,-0.0076 -0.01828,-0.02404 -0.03125,-0.03125 -0.01231,-0.0057 -0.01893,-0.02554 -0.03125,-0.03125 -0.138028,-0.06684 -0.254523,-0.110648 -0.375,-0.15625 -0.03772,-0.01468 -0.08302,-0.0174 -0.125,-0.03125 -0.06562,-0.02139 -0.126393,-0.04769 -0.1875,-0.0625 -0.07167,-0.01836 -0.145367,-0.02128 -0.21875,-0.03125 -0.03274,-0.0044 -0.06064,-0.02892 -0.09375,-0.03125 -0.04301,-0.005 -0.08191,0.0024 -0.125,0 -0.08618,-0.0048 -0.166228,-0.01187 -0.25,0 -0.03142,0.0045 -0.06303,0.02362 -0.09375,0.03125 -0.03168,0.0074 -0.06009,0.01862 -0.09375,0.03125 -0.05968,0.02253 -0.132502,0.05398 -0.1875,0.09375 -0.04459,0.0385 -0.08295,0.05264 -0.125,0.09375 -0.0048,0.0046 0.0039,0.0273 0,0.03125 -0.0039,0.0039 -0.02848,-0.0032 -0.03125,0 -0.02065,0.02352 -0.01329,0.06747 -0.03125,0.09375 -0.02761,0.04028 -0.07156,0.07521 -0.09375,0.125 -0.004,0.009 0.0039,0.02188 0,0.03125 -0.03993,0.09901 -0.07482,0.207693 -0.09375,0.3125 -0.0039,0.02154 -0.02784,0.04111 -0.03125,0.0625 -0.0024,0.03274 7.57e-4,0.06126 0,0.09375 -7.1e-5,0.01288 -7e-6,0.01404 0,0.03125 -1.13e-4,0.02159 -7.12e-4,0.04107 0,0.0625 8.02e-4,0.03505 0.02864,0.06562 0.03125,0.09375 0.0031,0.0317 -0.0054,0.06258 0,0.09375 0.0032,0.01818 -0.0044,0.04173 0,0.0625 0.0082,0.03854 0.0512,0.0583 0.0625,0.09375 0.0055,0.017 -0.0064,0.04575 0,0.0625 0.0076,0.02008 0.02231,0.0428 0.03125,0.0625 0.03158,0.06847 0.04677,0.12445 0.09375,0.1875 0.0085,0.01193 0.02204,0.01919 0.03125,0.03125 0.0091,0.01232 0.02154,0.0188 0.03125,0.03125 0.06248,0.078 0.12656,0.162344 0.1875,0.21875 0.04126,0.039 0.08381,0.0641 0.125,0.09375 0.01026,0.0073 0.02083,0.02439 0.03125,0.03125 0.0137,0.009 0.02006,0.02435 0.03125,0.03125 0.01933,0.0114 0.04295,0.02166 0.0625,0.03125 0.0076,0.0037 0.02352,-0.0035 0.03125,0 0.01439,0.0069 0.0115,0.02223 0.03125,0.03125 0.03867,0.01766 0.11427,0.04326 0.15625,0.0625 0.100404,0.04409 0.220668,0.07301 0.28125,0.09375 0.02144,0.0075 0.04078,0.02451 0.0625,0.03125 0.03151,0.0083 0.06211,0.02455 0.09375,0.03125 0.05187,0.01101 0.106695,0.02596 0.15625,0.03125 0.03,0.0034 0.06368,-0.0015 0.09375,0 0.06619,9.9e-5 0.187476,0.0044 0.21875,0 0.03746,-0.0051 0.05196,-0.02162 0.09375,-0.03125 0.04179,-0.0096 0.089,-0.0266 0.09375,-0.03125 0.0094,-0.0027 0.02191,0.0028 0.03125,0 -0.0251,0.05683 -0.06754,0.09995 -0.09375,0.15625 -0.05467,0.116505 -0.10147,0.227298 -0.15625,0.34375 -0.03825,0.04152 -0.10612,0.11649 -0.15625,0.15625 -0.112978,0.108043 -0.219549,0.18685 -0.34375,0.28125 -0.08458,0.05128 -0.1885,0.09388 -0.28125,0.125 -0.102273,0.03409 -0.134983,0.04417 -0.25,0.0625 -0.06217,-9e-4 -0.15015,0.01318 -0.1875,0 -0.0091,-0.0028 -0.02215,-0.02845 -0.03125,-0.03125 -0.74766,-0.195226 -1.02891,0.867274 -0.28125,1.0625 0.03448,0.0085 0.09053,0.02275 0.125,0.03125 0.182669,0.03013 0.347344,0.02189 0.53125,0 0.152584,-0.02434 0.321679,-0.04556 0.46875,-0.09375 0.204479,-0.06988 0.387321,-0.149863 0.5625,-0.28125 0.140816,-0.107028 0.278966,-0.2213 0.40625,-0.34375 0.164404,-0.144003 0.306177,-0.302951 0.40625,-0.5 0.05543,-0.117831 0.1322,-0.225858 0.1875,-0.34375 0.06727,-0.14463 0.13422,-0.286986 0.1875,-0.4375 0.05971,-0.180512 0.09785,-0.370763 0.09375,-0.5625 0.005,-0.124548 -0.01441,-0.251997 -0.03125,-0.375 0.01036,-0.01387 -0.0098,-0.0481 0,-0.0625 -0.0018,-0.01002 0.0021,-0.02127 0,-0.03125 0.0043,-0.0065 0.02708,0.0066 0.03125,0 0.107256,-0.174157 0.19966,-0.343733 0.28125,-0.53125 0.07256,-0.162187 0.13683,-0.329427 0.1875,-0.5 0.05534,-0.19016 0.10493,-0.371285 0.15625,-0.5625 0.04081,-0.161961 0.10669,-0.321228 0.1875,-0.46875 0.204741,-0.437409 -0.127601,-0.786128 -0.46875,-0.8125 z m -2.5,2.375 c 0.0039,0.0039 0.02885,-5e-4 0.03125,0 0.01011,0.0015 0.0212,-0.0018 0.03125,0 0.05713,0.01072 0.149244,0.03796 0.21875,0.0625 0.08957,0.03436 0.162809,0.08504 0.25,0.125 0.04101,0.01924 0.09748,0.06018 0.09375,0.0625 0.0055,0.0066 0.02502,-0.006 0.03125,0 0.01158,0.01267 0.02725,0.02915 0.03125,0.03125 l -0.0625,0.03125 c -0.03424,0.01106 -0.06496,0.0042 -0.09375,0 -0.01466,-0.0026 -0.04421,-0.02533 -0.0625,-0.03125 -0.03127,-0.01192 -0.063,-0.01805 -0.09375,-0.03125 -0.009,-0.0039 -0.02224,0.004 -0.03125,0 -0.106974,-0.04764 -0.151656,-0.07337 -0.1875,-0.09375 -0.02641,-0.0095 -0.04744,-0.01894 -0.0625,-0.03125 -0.0089,-0.008 -0.04523,-0.03761 -0.0625,-0.0625 -0.0069,-0.01 0.0055,-0.02335 0,-0.03125 -0.003,-0.0046 -0.02792,0.0049 -0.03125,0 -0.0043,-0.0061 6.4e-4,-0.03049 0,-0.03125 z"
       id="path7352"
       inkscape:connector-curvature="0" />
    <path
       sodipodi:type="arc"
       style="fill:#f44800;fill-opacity:1;fill-rule:evenodd;stroke:#cba38d;stroke-width:0;stroke-linecap:round;stroke-linejoin:round;stroke-miterlimit:4;stroke-opacity:1;stroke-dasharray:none"
       id="path7407"
       sodipodi:cx="27.71875"
       sodipodi:cy="27.75"
       sodipodi:rx="2.09375"
       sodipodi:ry="0.9375"
       d="m 29.8125,27.75 a 2.09375,0.9375 0 1 1 -4.1875,0 2.09375,0.9375 0 1 1 4.1875,0 z"
       transform="translate(-19.249999,-3.5624997)" />
    <path
       style="fill:url(#radialGradient7442);fill-opacity:1;fill-rule:evenodd;stroke:#cba38d;stroke-width:0;stroke-linecap:round;stroke-linejoin:round;stroke-miterlimit:4;stroke-opacity:1;stroke-dasharray:none"
       d="m 39.587792,26.675354 c -2.070334,2.346501 -4.91114,2.354511 -7.774477,1.226616 -4.023119,-1.584746 -6.636991,-5.481088 -5.308579,-9.880684 0.329427,-1.091027 1.177764,-2.526238 1.946748,-3.293481 1.133268,-1.130702 2.468618,-1.85148 3.936355,-2.124709 1.414499,-0.263318 2.763164,-0.147331 4.068352,0.349858 0.910705,0.346925 2.413402,1.395989 3.006178,2.098679 1.423403,1.687326 2.187606,3.714098 2.21025,5.861895 0.02214,2.10827 -0.355364,3.73013 -1.686214,5.238505 z"
       id="path7431"
       inkscape:connector-curvature="0"
       sodipodi:nodetypes="cssssssscc" />
    <path
       sodipodi:type="arc"
       style="fill:#f44800;fill-opacity:1;fill-rule:evenodd;stroke:#cba38d;stroke-width:0;stroke-linecap:round;stroke-linejoin:round;stroke-miterlimit:4;stroke-opacity:1;stroke-dasharray:none"
       id="path7407-0"
       sodipodi:cx="27.71875"
       sodipodi:cy="27.75"
       sodipodi:rx="2.09375"
       sodipodi:ry="0.9375"
       d="m 29.8125,27.75 a 2.09375,0.9375 0 1 1 -4.1875,0 2.09375,0.9375 0 1 1 4.1875,0 z"
       transform="translate(-7.8437494,-3.1874997)" />
  </g>
</svg>
