<?xml version="1.0" encoding="UTF-8" standalone="no"?>

<!-- Created with Inkscape (http://www.inkscape.org/) -->

<svg id="svg7604" xmlns:rdf="http://www.w3.org/1999/02/22-rdf-syntax-ns#" xmlns="http://www.w3.org/2000/svg" height="34" width="41" version="1.1" xmlns:cc="http://creativecommons.org/ns#" xmlns:xlink="http://www.w3.org/1999/xlink" xmlns:dc="http://purl.org/dc/elements/1.1/">

 <defs id="defs7606">

  <radialGradient id="radialGradient7442" gradientUnits="userSpaceOnUse" cy="27" cx="55.221" gradientTransform="matrix(1.0959229,0,0,1.1418116,-31.944129,-1.0471576)" r="7.0798">

   <stop id="stop7438" stop-color="#f940af" stop-opacity="0.66666669" offset="0"/>

   <stop id="stop7440" stop-color="#f82aa4" stop-opacity="0" offset="1"/>

  </radialGradient>

  <linearGradient id="linearGradient7272" y2="51.901" gradientUnits="userSpaceOnUse" x2="63.901" gradientTransform="translate(-28.618569,-25.610998)" y1="65.079" x1="32.786">

   <stop id="stop7268" stop-color="#752253" stop-opacity="0.6036036" offset="0"/>

   <stop id="stop7270" stop-color="#fa71c2" stop-opacity="0" offset="1"/>

  </linearGradient>

  <linearGradient id="linearGradient7237" y2="50.157" gradientUnits="userSpaceOnUse" x2="65.167" gradientTransform="matrix(0.95528178,0,0,1,-42.444882,-14.811549)" y1="32.351" x1="82.088">

   <stop id="stop7233" stop-color="#fdbce2" offset="0"/>

   <stop id="stop7235" stop-color="#fa71c2" stop-opacity="0.0990991" offset="1"/>

  </linearGradient>

  <linearGradient id="linearGradient7081" y2="25.299" gradientUnits="userSpaceOnUse" x2="20.573" gradientTransform="translate(-7.5982142,3.8303574)" y1="28.436" x1="16.364">

   <stop id="stop7077" stop-color="#fac4a7" offset="0"/>

   <stop id="stop7079" stop-color="#fadaca" stop-opacity="0.99082571" offset="1"/>

  </linearGradient>

  <linearGradient id="linearGradient7567" y2="29.046" spreadMethod="reflect" gradientUnits="userSpaceOnUse" x2="48.384" gradientTransform="translate(-7.5982142,3.8303574)" y1="29.671" x1="8.0839">

   <stop id="stop7563" stop-color="#00b0dd" offset="0"/>

   <stop id="stop7565" stop-color="#43d9ff" stop-opacity="0.990991" offset="1"/>

  </linearGradient>

 </defs>

 <metadata id="metadata7609">

  <rdf:RDF>

   <cc:Work rdf:about="">

    <dc:format>image/svg+xml</dc:format>

    <dc:type rdf:resource="http://purl.org/dc/dcmitype/StillImage"/>

    <dc:title/>

   </cc:Work>

  </rdf:RDF>

 </metadata>

 <g id="layer1" transform="translate(0,-14)">

  <path id="path7569-0" stroke-linejoin="round" d="m14.245,15.388c-2.2864,0-4.428,0.57476-6.2813,1.5938-0.0078,0.0043-0.02348-0.0043-0.03125,0-0.12812-0.01555-0.29269-0.03125-0.5-0.03125-0.99451,0-1.6441,0.35694-2.5313,0.5-0.47648,0.07683-0.81787,0.3923-1.0625,0.5625-0.53613,0.37301-0.40602,1.6007,0.09375,2.4688-1.5132,2.0212-2.4063,4.5045-2.4063,7.1875,0,6.778,5.6897,12.25,12.719,12.25,0.75718,0,1.498-0.06781,2.2188-0.1875-0.60145,2.3263-0.37288,4.3603,0.59375,4.6562,0.78662,0.24088,1.8331-0.75122,2.625-2.3438,1.1155,0.6802,2.3687,1.1801,3.6875,1.4688-0.0042,1.8503,0.50872,3.2472,1.3438,3.375,0.88418,0.1353,1.8398-1.215,2.375-3.1562,1.6392-0.15549,3.1822-0.62994,4.5625-1.375,0.83736,1.7855,1.9735,2.928,2.8125,2.6562,1.0301-0.33365,1.19-2.64,0.375-5.1562-0.0031-0.0097,0.0032-0.02158,0-0.03125,1.8889-2.0894,3.0625-4.8304,3.0625-7.8438,0-1.8731-0.46034-3.6471-1.25-5.2188,0.02116-0.0022,0.04086,0.0026,0.0625,0,0.15258-0.02434,0.32168-0.04556,0.46875-0.09375,0.20448-0.06988,0.38732-0.14986,0.5625-0.28125,0.14082-0.10703,0.27897-0.2213,0.40625-0.34375,0.1644-0.144,0.30618-0.30295,0.40625-0.5,0.05543-0.11783,0.1322-0.22586,0.1875-0.34375,0.06727-0.14463,0.13422-0.28699,0.1875-0.4375,0.05971-0.18051,0.09785-0.37076,0.09375-0.5625,0.005-0.12455-0.01441-0.252-0.03125-0.375,0.01036-0.01387-0.0098-0.0481,0-0.0625-0.0018-0.01002,0.0021-0.02127,0-0.03125,0.0043-0.0065,0.02708,0.0066,0.03125,0,0.10726-0.17416,0.19966-0.34373,0.28125-0.53125,0.07256-0.16219,0.13683-0.32943,0.1875-0.5,0.05534-0.19016,0.10493-0.37128,0.15625-0.5625,0.04081-0.16196,0.10669-0.32123,0.1875-0.46875,0.20474-0.43741-0.1276-0.78613-0.46875-0.8125-0.20469-0.01582-0.40841,0.0813-0.53125,0.34375-0.10954,0.20997-0.19181,0.42772-0.25,0.65625-0.04891,0.17796-0.07264,0.35423-0.125,0.53125-0.03455,0.11399-0.1078,0.23512-0.15625,0.34375-0.0061-0.0059-0.02514,0.0059-0.03125,0-0.10126-0.09481-0.19383-0.16751-0.28125-0.21875-0.01263-0.0076-0.01828-0.02404-0.03125-0.03125-0.01231-0.0057-0.01893-0.02554-0.03125-0.03125-0.13803-0.06684-0.25452-0.11065-0.375-0.15625-0.03772-0.01468-0.08302-0.0174-0.125-0.03125-0.06562-0.02139-0.12639-0.04769-0.1875-0.0625-0.07167-0.01836-0.14537-0.02128-0.21875-0.03125-0.03274-0.0044-0.06064-0.02892-0.09375-0.03125-0.04301-0.005-0.08191,0.0024-0.125,0-0.08618-0.0048-0.16623-0.01187-0.25,0-0.03142,0.0045-0.06303,0.02362-0.09375,0.03125-0.03168,0.0074-0.06009,0.01862-0.09375,0.03125-0.05968,0.02253-0.1325,0.05398-0.1875,0.09375-0.04459,0.0385-0.08295,0.05264-0.125,0.09375-0.0048,0.0046,0.0039,0.0273,0,0.03125-0.0039,0.0039-0.02848-0.0032-0.03125,0-0.02065,0.02352-0.01329,0.06747-0.03125,0.09375-0.02761,0.04028-0.07156,0.07521-0.09375,0.125-0.004,0.009,0.0039,0.02188,0,0.03125-0.03993,0.09901-0.07482,0.20769-0.09375,0.3125-0.0039,0.02154-0.02784,0.04111-0.03125,0.0625-0.0024,0.03274,0.000757,0.06126,0,0.09375-0.000071,0.01288-0.000007,0.01404,0,0.03125-0.000113,0.02159-0.000712,0.04107,0,0.0625,0.000802,0.03505,0.02864,0.06562,0.03125,0.09375,0.0031,0.0317-0.0054,0.06258,0,0.09375,0.0032,0.01818-0.0044,0.04173,0,0.0625,0.0082,0.03854,0.0512,0.0583,0.0625,0.09375,0.0055,0.017-0.0064,0.04575,0,0.0625,0.0076,0.02008,0.02231,0.0428,0.03125,0.0625,0.03158,0.06847,0.04677,0.12445,0.09375,0.1875,0.0085,0.01193,0.02204,0.01919,0.03125,0.03125,0.0091,0.01232,0.02154,0.0188,0.03125,0.03125,0.06248,0.078,0.12656,0.16234,0.1875,0.21875,0.04126,0.039,0.08381,0.0641,0.125,0.09375,0.01026,0.0073,0.02083,0.02439,0.03125,0.03125,0.0137,0.009,0.02006,0.02435,0.03125,0.03125,0.01933,0.0114,0.04295,0.02166,0.0625,0.03125,0.0076,0.0037,0.02352-0.0035,0.03125,0,0.01439,0.0069,0.0115,0.02223,0.03125,0.03125,0.03867,0.01766,0.11427,0.04326,0.15625,0.0625,0.1004,0.04409,0.22067,0.07301,0.28125,0.09375,0.02144,0.0075,0.04078,0.02451,0.0625,0.03125,0.03151,0.0083,0.06211,0.02455,0.09375,0.03125,0.05187,0.01101,0.1067,0.02596,0.15625,0.03125,0.03,0.0034,0.06368-0.0015,0.09375,0,0.06619,0.000099,0.18748,0.0044,0.21875,0,0.03746-0.0051,0.05196-0.02162,0.09375-0.03125,0.04179-0.0096,0.089-0.0266,0.09375-0.03125,0.0094-0.0027,0.02191,0.0028,0.03125,0-0.0251,0.05683-0.06754,0.09995-0.09375,0.15625-0.05467,0.1165-0.10147,0.2273-0.15625,0.34375-0.03825,0.04152-0.10612,0.11649-0.15625,0.15625-0.11298,0.10804-0.21955,0.18685-0.34375,0.28125-0.08458,0.05128-0.1885,0.09388-0.28125,0.125-0.10227,0.03409-0.13498,0.04417-0.25,0.0625-0.06217-0.0009-0.15015,0.01318-0.1875,0-0.0091-0.0028-0.02215-0.02845-0.03125-0.03125-0.10748-0.02806-0.22597-0.0176-0.3125,0-2.1241-3.2917-5.8442-5.4688-10.094-5.4688-0.50973,0-1.0071,0.0327-1.5,0.09375-2.3219-2.9818-6.0229-4.9062-10.188-4.9062zm22.625,7.8438c0.0039,0.0039,0.02885-0.0005,0.03125,0,0.01011,0.0015,0.0212-0.0018,0.03125,0,0.05713,0.01072,0.14924,0.03796,0.21875,0.0625,0.08957,0.03436,0.16281,0.08504,0.25,0.125,0.04101,0.01924,0.09748,0.06018,0.09375,0.0625,0.0055,0.0066,0.02502-0.006,0.03125,0,0.01158,0.01267,0.02725,0.02915,0.03125,0.03125l-0.0625,0.03125c-0.03424,0.01106-0.06496,0.0042-0.09375,0-0.01466-0.0026-0.04421-0.02533-0.0625-0.03125-0.03127-0.01192-0.063-0.01805-0.09375-0.03125-0.009-0.0039-0.02224,0.004-0.03125,0-0.10697-0.04764-0.15166-0.07337-0.1875-0.09375-0.02641-0.0095-0.04744-0.01894-0.0625-0.03125-0.0089-0.008-0.04523-0.03761-0.0625-0.0625-0.0069-0.01,0.0055-0.02335,0-0.03125-0.003-0.0046-0.02792,0.0049-0.03125,0-0.0043-0.0061,0.00064-0.03049,0-0.03125z" fill-rule="evenodd" stroke="#156278" stroke-miterlimit="4" stroke-dasharray="none" stroke-width="2" fill="#0197fd"/>

  <path id="path7557" stroke-linejoin="round" d="m14.229,15.371c-2.2864,0-4.428,0.57476-6.2813,1.5938-0.0078,0.0043-0.02348-0.0043-0.03125,0-0.12812-0.01555-0.29269-0.03125-0.5-0.03125-0.99451,0-1.6441,0.35694-2.5313,0.5-0.47648,0.07683-0.81787,0.3923-1.0625,0.5625-0.53613,0.37301-0.40602,1.6007,0.09375,2.4688-1.5132,2.0212-2.4063,4.5045-2.4063,7.1875,0,6.778,5.6897,12.25,12.719,12.25,0.75718,0,1.498-0.06781,2.2188-0.1875-0.60145,2.3263-0.37288,4.3603,0.59375,4.6562,0.78662,0.24088,1.8331-0.75122,2.625-2.3438,1.1155,0.6802,2.3687,1.1801,3.6875,1.4688-0.0042,1.8503,0.50872,3.2472,1.3438,3.375,0.88418,0.1353,1.8398-1.215,2.375-3.1562,1.6392-0.15549,3.1822-0.62994,4.5625-1.375,0.83736,1.7855,1.9735,2.928,2.8125,2.6562,1.0301-0.33365,1.19-2.64,0.375-5.1562-0.0031-0.0097,0.0032-0.02158,0-0.03125,1.8889-2.0894,3.0625-4.8304,3.0625-7.8438,0-1.8731-0.46034-3.6471-1.25-5.2188,0.02116-0.0022,0.04086,0.0026,0.0625,0,0.15258-0.02434,0.32168-0.04556,0.46875-0.09375,0.20448-0.06988,0.38732-0.14986,0.5625-0.28125,0.14082-0.10703,0.27897-0.2213,0.40625-0.34375,0.1644-0.144,0.30618-0.30295,0.40625-0.5,0.05543-0.11783,0.1322-0.22586,0.1875-0.34375,0.06727-0.14463,0.13422-0.28699,0.1875-0.4375,0.05971-0.18051,0.09785-0.37076,0.09375-0.5625,0.005-0.12455-0.01441-0.252-0.03125-0.375,0.01036-0.01387-0.0098-0.0481,0-0.0625-0.0018-0.01002,0.0021-0.02127,0-0.03125,0.0043-0.0065,0.02708,0.0066,0.03125,0,0.10726-0.17416,0.19966-0.34373,0.28125-0.53125,0.07256-0.16219,0.13683-0.32943,0.1875-0.5,0.05534-0.19016,0.10493-0.37128,0.15625-0.5625,0.04081-0.16196,0.10669-0.32123,0.1875-0.46875,0.20474-0.43741-0.1276-0.78613-0.46875-0.8125-0.20469-0.01582-0.40841,0.0813-0.53125,0.34375-0.10954,0.20997-0.19181,0.42772-0.25,0.65625-0.04891,0.17796-0.07264,0.35423-0.125,0.53125-0.03455,0.11399-0.1078,0.23512-0.15625,0.34375-0.0061-0.0059-0.02514,0.0059-0.03125,0-0.10126-0.09481-0.19383-0.16751-0.28125-0.21875-0.01263-0.0076-0.01828-0.02404-0.03125-0.03125-0.01231-0.0057-0.01893-0.02554-0.03125-0.03125-0.13803-0.06684-0.25452-0.11065-0.375-0.15625-0.03772-0.01468-0.08302-0.0174-0.125-0.03125-0.06562-0.02139-0.12639-0.04769-0.1875-0.0625-0.07167-0.01836-0.14537-0.02128-0.21875-0.03125-0.03274-0.0044-0.06064-0.02892-0.09375-0.03125-0.04301-0.005-0.08191,0.0024-0.125,0-0.08618-0.0048-0.16623-0.01187-0.25,0-0.03142,0.0045-0.06303,0.02362-0.09375,0.03125-0.03168,0.0074-0.06009,0.01862-0.09375,0.03125-0.05968,0.02253-0.1325,0.05398-0.1875,0.09375-0.04459,0.0385-0.08295,0.05264-0.125,0.09375-0.0048,0.0046,0.0039,0.0273,0,0.03125-0.0039,0.0039-0.02848-0.0032-0.03125,0-0.02065,0.02352-0.01329,0.06747-0.03125,0.09375-0.02761,0.04028-0.07156,0.07521-0.09375,0.125-0.004,0.009,0.0039,0.02188,0,0.03125-0.03993,0.09901-0.07482,0.20769-0.09375,0.3125-0.0039,0.02154-0.02784,0.04111-0.03125,0.0625-0.0024,0.03274,0.000757,0.06126,0,0.09375-0.000071,0.01288-0.000007,0.01404,0,0.03125-0.000113,0.02159-0.000712,0.04107,0,0.0625,0.000802,0.03505,0.02864,0.06562,0.03125,0.09375,0.0031,0.0317-0.0054,0.06258,0,0.09375,0.0032,0.01818-0.0044,0.04173,0,0.0625,0.0082,0.03854,0.0512,0.0583,0.0625,0.09375,0.0055,0.017-0.0064,0.04575,0,0.0625,0.0076,0.02008,0.02231,0.0428,0.03125,0.0625,0.03158,0.06847,0.04677,0.12445,0.09375,0.1875,0.0085,0.01193,0.02204,0.01919,0.03125,0.03125,0.0091,0.01232,0.02154,0.0188,0.03125,0.03125,0.06248,0.078,0.12656,0.16234,0.1875,0.21875,0.04126,0.039,0.08381,0.0641,0.125,0.09375,0.01026,0.0073,0.02083,0.02439,0.03125,0.03125,0.0137,0.009,0.02006,0.02435,0.03125,0.03125,0.01933,0.0114,0.04295,0.02166,0.0625,0.03125,0.0076,0.0037,0.02352-0.0035,0.03125,0,0.01439,0.0069,0.0115,0.02223,0.03125,0.03125,0.03867,0.01766,0.11427,0.04326,0.15625,0.0625,0.1004,0.04409,0.22067,0.07301,0.28125,0.09375,0.02144,0.0075,0.04078,0.02451,0.0625,0.03125,0.03151,0.0083,0.06211,0.02455,0.09375,0.03125,0.05187,0.01101,0.1067,0.02596,0.15625,0.03125,0.03,0.0034,0.06368-0.0015,0.09375,0,0.06619,0.000099,0.18748,0.0044,0.21875,0,0.03746-0.0051,0.05196-0.02162,0.09375-0.03125,0.04179-0.0096,0.089-0.0266,0.09375-0.03125,0.0094-0.0027,0.02191,0.0028,0.03125,0-0.0251,0.05683-0.06754,0.09995-0.09375,0.15625-0.05467,0.1165-0.10147,0.2273-0.15625,0.34375-0.03825,0.04152-0.10612,0.11649-0.15625,0.15625-0.11298,0.10804-0.21955,0.18685-0.34375,0.28125-0.08458,0.05128-0.1885,0.09388-0.28125,0.125-0.10227,0.03409-0.13498,0.04417-0.25,0.0625-0.06217-0.0009-0.15015,0.01318-0.1875,0-0.0091-0.0028-0.02215-0.02845-0.03125-0.03125-0.10748-0.02806-0.22597-0.0176-0.3125,0-2.1241-3.2917-5.8442-5.4688-10.094-5.4688-0.50973,0-1.0071,0.0327-1.5,0.09375-2.3219-2.9818-6.0229-4.9062-10.188-4.9062zm22.625,7.8438c0.0039,0.0039,0.02885-0.0005,0.03125,0,0.01011,0.0015,0.0212-0.0018,0.03125,0,0.05713,0.01072,0.14924,0.03796,0.21875,0.0625,0.08957,0.03436,0.16281,0.08504,0.25,0.125,0.04101,0.01924,0.09748,0.06018,0.09375,0.0625,0.0055,0.0066,0.02502-0.006,0.03125,0,0.01158,0.01267,0.02725,0.02915,0.03125,0.03125l-0.0625,0.03125c-0.03424,0.01106-0.06496,0.0042-0.09375,0-0.01466-0.0026-0.04421-0.02533-0.0625-0.03125-0.03127-0.01192-0.063-0.01805-0.09375-0.03125-0.009-0.0039-0.02224,0.004-0.03125,0-0.10697-0.04764-0.15166-0.07337-0.1875-0.09375-0.02641-0.0095-0.04744-0.01894-0.0625-0.03125-0.0089-0.008-0.04523-0.03761-0.0625-0.0625-0.0069-0.01,0.0055-0.02335,0-0.03125-0.003-0.0046-0.02792,0.0049-0.03125,0-0.0043-0.0061,0.00064-0.03049,0-0.03125z" fill-rule="evenodd" stroke="url(#linearGradient7567)" stroke-miterlimit="4" stroke-dasharray="none" stroke-width="1.79999995" fill="#fa71c2"/>

  <path id="path6481" d="M34.727,24c0,6.778-5.698,12.273-12.727,12.273s-12.727-5.495-12.727-12.273,5.6983-12.273,12.727-12.273c7.0291,0,12.727,5.4947,12.727,12.273z" fill-rule="evenodd" transform="translate(-7.5982142,3.8303574)" stroke-miterlimit="4" stroke-width="0" fill="#fa71c2"/>

  <use id="use6483" xlink:href="#path6481" transform="matrix(0.89642857,0,0,0.95925926,13.173432,5.2701931)" height="64" width="64" y="0" x="0" fill="#fa71c2"/>

  <path id="path7218" d="m14.339,15.433c-7.0291,0-12.719,5.5032-12.719,12.281,0,6.778,5.6897,12.25,12.719,12.25,0.90002,0,1.7778-0.07867,2.625-0.25,2.1926,2.5146,5.4358,4.125,9.0625,4.125,6.6031,0,11.969-5.3007,11.969-11.812,0-6.5118-5.3657-11.781-11.969-11.781-0.50973,0-1.0071,0.0327-1.5,0.09375-2.3219-2.9818-6.0229-4.9062-10.188-4.9062z" fill-rule="evenodd" stroke-miterlimit="4" stroke-width="0" fill="#fa71c2"/>

  <path id="path7006" stroke-linejoin="round" d="m5.8109,24.739,2.7273,1.6364-2.6364,1.3636" stroke="#000" stroke-linecap="round" stroke-miterlimit="4" stroke-dasharray="none" stroke-width="0.60000002" fill="none"/>

  <use id="use7008" xlink:href="#path7006" transform="matrix(-1,0,0,-1,23.258119,52.842533)" height="64" width="64" y="0" x="0"/>

  <path id="path7050" d="m10.939,28.154c-1.4344,0-2.6079,0.34326-2.9688,1.125,0.53287-0.48822,1.5047-0.71875,2.6563-0.71875,1.7273,0,3.1562,0.48623,3.1562,1.6562,0,0.42096-0.18746,0.92601-0.5,1.4062,0.50236-0.58719,0.84375-1.2655,0.84375-1.8125,0-1.17-1.4602-1.6562-3.1875-1.6562z" fill-rule="evenodd" stroke-miterlimit="4" stroke-width="0" fill="#f3b492"/>

  <path id="path6993" d="m13.884,30.122c0,1.17-1.4002,3.0264-3.1275,3.0264s-3.1275-1.8564-3.1275-3.0264,1.3666-1.6477,3.0939-1.6477,3.1611,0.47772,3.1611,1.6477z" fill-rule="evenodd" stroke-miterlimit="4" stroke-width="0" fill="#fac4a7"/>

  <path id="path7055" d="m13.884,30.122c0,1.17-1.4002,3.0264-3.1275,3.0264s-3.1275-1.8564-3.1275-3.0264,1.3666-1.6477,3.0939-1.6477,3.1611,0.47772,3.1611,1.6477z" fill-rule="evenodd" stroke-miterlimit="4" stroke-width="0" fill="url(#linearGradient7081)"/>

  <path id="path7085" stroke-linejoin="round" d="m11.764,15.065c0,0.73667-0.5756,1.3339-1.2856,1.3339-0.71004,0-1.2856-0.59719-1.2856-1.3339,0-0.73667,0.5756-1.3339,1.2856-1.3339,0.71004,0,1.2856,0.59719,1.2856,1.3339z" fill-rule="evenodd" transform="matrix(0.66910004,0,0,0.66910004,2.3614943,20.755708)" stroke="#c79c85" stroke-linecap="round" stroke-miterlimit="4" stroke-dasharray="none" stroke-width="0.08" fill="#fac4a7"/>

  <path id="path7087" stroke-linejoin="round" d="m11.764,15.065c0,0.73667-0.5756,1.3339-1.2856,1.3339-0.71004,0-1.2856-0.59719-1.2856-1.3339,0-0.73667,0.5756-1.3339,1.2856-1.3339,0.71004,0,1.2856,0.59719,1.2856,1.3339z" fill-rule="evenodd" transform="matrix(0.66910004,0,0,0.66910004,4.9078963,20.755708)" stroke="#c79c85" stroke-linecap="round" stroke-miterlimit="4" stroke-dasharray="none" stroke-width="0.08" fill="#fac4a7"/>

  <path id="path7115" d="m8.4868,30.968c-0.0015,0.0213,0,0.04081,0,0.0625,0,0.49291,0.36866,0.90625,0.84375,0.90625s0.875-0.41334,0.875-0.90625c0-0.02169,0.0015-0.0412,0-0.0625-0.04628,0.44762-0.43127,0.8125-0.875,0.8125s-0.79747-0.36488-0.84375-0.8125z" fill-rule="evenodd" stroke-miterlimit="4" stroke-width="0" fill="#fde8dd"/>

  <path id="path7117" d="m11.018,30.968c-0.0015,0.0213,0,0.04081,0,0.0625,0,0.49291,0.39991,0.90625,0.875,0.90625s0.84375-0.41334,0.84375-0.90625c0-0.02169,0.0015-0.0412,0-0.0625-0.04628,0.44762-0.40002,0.8125-0.84375,0.8125s-0.82872-0.36488-0.875-0.8125z" fill-rule="evenodd" stroke-miterlimit="4" stroke-width="0" fill="#fde8dd"/>

  <path id="path7129" d="m9.4011,29.882c-0.41048,0-0.72671,0.28846-0.8125,0.6875,0.13059-0.32033,0.42493-0.5625,0.78125-0.5625,0.47509,0,0.875,0.41334,0.875,0.90625,0.0078-0.04843,0.03125-0.10551,0.03125-0.15625,0-0.49291-0.39991-0.875-0.875-0.875z" fill-rule="evenodd" stroke-miterlimit="4" stroke-width="0" fill="#f69865"/>

  <path id="path7131" d="m11.964,29.882c-0.41048,0-0.75796,0.28846-0.84375,0.6875,0.13059-0.32033,0.45618-0.5625,0.8125-0.5625,0.47509,0,0.84375,0.41334,0.84375,0.90625,0.0081-0.04922,0.03125-0.10463,0.03125-0.15625,0-0.49291-0.36866-0.875-0.84375-0.875z" fill-rule="evenodd" stroke-miterlimit="4" stroke-width="0" fill="#f69865"/>

  <path id="path7274-5" d="m11.957,36.037c0,1.8106-0.8778,3.2784-1.9606,3.2784s-1.9606-1.4678-1.9606-3.2784,0.8778-3.2784,1.9606-3.2784,1.9606,1.4678,1.9606,3.2784z" fill-rule="evenodd" transform="matrix(0.95617499,0.29279581,-0.42771153,1.3967654,24.420391,-13.394695)" stroke-miterlimit="4" stroke-width="0" fill="#fa71c2"/>

  <path id="path7226" d="m14.484,16.001c-5.6814,0-10.4,3.963-11.732,9.2812,1.9498-4.1466,6.1074-7.0312,10.956-7.0312,3.9784,0,7.5139,1.9245,9.7319,4.9062,0.4709-0.06105,0.94599-0.09375,1.4329-0.09375,6.3078,0,11.434,5.2695,11.434,11.781,0,0.98907-0.13554,1.9561-0.35823,2.875,0.72688-1.5521,1.1344-3.2886,1.1344-5.125,0-6.5118-5.1258-11.781-11.434-11.781-0.48694,0-0.96202,0.0327-1.4329,0.09375-2.2181-2.9818-5.7536-4.9062-9.7319-4.9062z" fill-rule="evenodd" stroke-miterlimit="4" stroke-width="0" fill="url(#linearGradient7237)"/>

  <path id="path7055-4-9" d="m23.057,19.518c0,1.1272-0.56072,2.7404-2.2247,2.7404-1.066,0-1.1002-2.4575-1.8682-3.2298-0.43084-0.43318-1.1009,1.0695-1.1009,0.66447,0-1.1272-0.47505-2.2014,1.1414-1.8063,0.8959,0.21895,1.4312,0.4387,2.6597,0.19355,0.74536-0.14873,1.3928,0.88766,1.3928,1.4376z" fill-rule="evenodd" stroke-miterlimit="4" stroke-width="0" fill="#fac4a7"/>

  <path id="path7218-5" d="m5.6314,19.077c-2.4053,2.2351-3.9063,5.3683-3.9063,8.8438,0,6.778,5.6897,12.25,12.719,12.25,0.90002,0,1.7778-0.07867,2.625-0.25,2.1926,2.5146,5.4358,4.125,9.0625,4.125,3.7619,0,7.1485-1.7215,9.3438-4.4062-2.1466,2.0117-5.0614,3.25-8.25,3.25-3.6267,0-6.8699-1.6104-9.0625-4.125-0.84722,0.17133-1.725,0.25-2.625,0.25-7.0291,0-12.719-5.472-12.719-12.25,0-2.9094,1.06-5.5823,2.8125-7.6875z" fill-rule="evenodd" stroke-miterlimit="4" stroke-width="0" fill="url(#linearGradient7272)"/>

  <path id="path7055-4-8" d="m7.9053,18.943c-0.48009,1.2107-0.47158,2.2076-2.0864,2.8186-1.5512,0.58693-2.5722-2.6571-1.65-3.2987,0.24463-0.1702,0.57178-0.47986,1.0483-0.55669,0.88717-0.14306,1.5389-0.5017,2.5334-0.5017,1.6585,0,0.56881,0.49416,0.15471,1.5385z" fill-rule="evenodd" stroke-miterlimit="4" stroke-width="0" fill="#fac4a7"/>

  <path id="path7274" d="m11.957,36.037c0,1.8106-0.8778,3.2784-1.9606,3.2784s-1.9606-1.4678-1.9606-3.2784,0.8778-3.2784,1.9606-3.2784,1.9606,1.4678,1.9606,3.2784z" fill-rule="evenodd" transform="matrix(0.98849452,0.1512567,-0.22095342,1.4439773,23.621001,-11.334955)" stroke-miterlimit="4" stroke-width="0" fill="#fa71c2"/>

  <path id="path7274-58" d="m11.957,36.037c0,1.8106-0.8778,3.2784-1.9606,3.2784s-1.9606-1.4678-1.9606-3.2784,0.8778-3.2784,1.9606-3.2784,1.9606,1.4678,1.9606,3.2784z" fill-rule="evenodd" transform="matrix(0.95134502,-0.30812766,0.45010805,1.3897099,7.3623937,-6.4908289)" stroke-miterlimit="4" stroke-width="0" fill="#fa71c2"/>

  <path id="path7352" d="m39.464,20.924c-0.20469-0.01582-0.40841,0.0813-0.53125,0.34375-0.10954,0.20997-0.19181,0.42772-0.25,0.65625-0.04891,0.17796-0.07264,0.35423-0.125,0.53125-0.03455,0.11399-0.1078,0.23512-0.15625,0.34375-0.0061-0.0059-0.02514,0.0059-0.03125,0-0.10126-0.09481-0.19383-0.16751-0.28125-0.21875-0.01263-0.0076-0.01828-0.02404-0.03125-0.03125-0.01231-0.0057-0.01893-0.02554-0.03125-0.03125-0.13803-0.06684-0.25452-0.11065-0.375-0.15625-0.03772-0.01468-0.08302-0.0174-0.125-0.03125-0.06562-0.02139-0.12639-0.04769-0.1875-0.0625-0.07167-0.01836-0.14537-0.02128-0.21875-0.03125-0.03274-0.0044-0.06064-0.02892-0.09375-0.03125-0.04301-0.005-0.08191,0.0024-0.125,0-0.08618-0.0048-0.16623-0.01187-0.25,0-0.03142,0.0045-0.06303,0.02362-0.09375,0.03125-0.03168,0.0074-0.06009,0.01862-0.09375,0.03125-0.05968,0.02253-0.1325,0.05398-0.1875,0.09375-0.04459,0.0385-0.08295,0.05264-0.125,0.09375-0.0048,0.0046,0.0039,0.0273,0,0.03125-0.0039,0.0039-0.02848-0.0032-0.03125,0-0.02065,0.02352-0.01329,0.06747-0.03125,0.09375-0.02761,0.04028-0.07156,0.07521-0.09375,0.125-0.004,0.009,0.0039,0.02188,0,0.03125-0.03993,0.09901-0.07482,0.20769-0.09375,0.3125-0.0039,0.02154-0.02784,0.04111-0.03125,0.0625-0.0024,0.03274,0.000757,0.06126,0,0.09375-0.000071,0.01288-0.000007,0.01404,0,0.03125-0.000113,0.02159-0.000712,0.04107,0,0.0625,0.000802,0.03505,0.02864,0.06562,0.03125,0.09375,0.0031,0.0317-0.0054,0.06258,0,0.09375,0.0032,0.01818-0.0044,0.04173,0,0.0625,0.0082,0.03854,0.0512,0.0583,0.0625,0.09375,0.0055,0.017-0.0064,0.04575,0,0.0625,0.0076,0.02008,0.02231,0.0428,0.03125,0.0625,0.03158,0.06847,0.04677,0.12445,0.09375,0.1875,0.0085,0.01193,0.02204,0.01919,0.03125,0.03125,0.0091,0.01232,0.02154,0.0188,0.03125,0.03125,0.06248,0.078,0.12656,0.16234,0.1875,0.21875,0.04126,0.039,0.08381,0.0641,0.125,0.09375,0.01026,0.0073,0.02083,0.02439,0.03125,0.03125,0.0137,0.009,0.02006,0.02435,0.03125,0.03125,0.01933,0.0114,0.04295,0.02166,0.0625,0.03125,0.0076,0.0037,0.02352-0.0035,0.03125,0,0.01439,0.0069,0.0115,0.02223,0.03125,0.03125,0.03867,0.01766,0.11427,0.04326,0.15625,0.0625,0.1004,0.04409,0.22067,0.07301,0.28125,0.09375,0.02144,0.0075,0.04078,0.02451,0.0625,0.03125,0.03151,0.0083,0.06211,0.02455,0.09375,0.03125,0.05187,0.01101,0.1067,0.02596,0.15625,0.03125,0.03,0.0034,0.06368-0.0015,0.09375,0,0.06619,0.000099,0.18748,0.0044,0.21875,0,0.03746-0.0051,0.05196-0.02162,0.09375-0.03125,0.04179-0.0096,0.089-0.0266,0.09375-0.03125,0.0094-0.0027,0.02191,0.0028,0.03125,0-0.0251,0.05683-0.06754,0.09995-0.09375,0.15625-0.05467,0.1165-0.10147,0.2273-0.15625,0.34375-0.03825,0.04152-0.10612,0.11649-0.15625,0.15625-0.11298,0.10804-0.21955,0.18685-0.34375,0.28125-0.08458,0.05128-0.1885,0.09388-0.28125,0.125-0.10227,0.03409-0.13498,0.04417-0.25,0.0625-0.06217-0.0009-0.15015,0.01318-0.1875,0-0.0091-0.0028-0.02215-0.02845-0.03125-0.03125-0.74766-0.19523-1.0289,0.86727-0.28125,1.0625,0.03448,0.0085,0.09053,0.02275,0.125,0.03125,0.18267,0.03013,0.34734,0.02189,0.53125,0,0.15258-0.02434,0.32168-0.04556,0.46875-0.09375,0.20448-0.06988,0.38732-0.14986,0.5625-0.28125,0.14082-0.10703,0.27897-0.2213,0.40625-0.34375,0.1644-0.144,0.30618-0.30295,0.40625-0.5,0.05543-0.11783,0.1322-0.22586,0.1875-0.34375,0.06727-0.14463,0.13422-0.28699,0.1875-0.4375,0.05971-0.18051,0.09785-0.37076,0.09375-0.5625,0.005-0.12455-0.01441-0.252-0.03125-0.375,0.01036-0.01387-0.0098-0.0481,0-0.0625-0.0018-0.01002,0.0021-0.02127,0-0.03125,0.0043-0.0065,0.02708,0.0066,0.03125,0,0.10726-0.17416,0.19966-0.34373,0.28125-0.53125,0.07256-0.16219,0.13683-0.32943,0.1875-0.5,0.05534-0.19016,0.10493-0.37128,0.15625-0.5625,0.04081-0.16196,0.10669-0.32123,0.1875-0.46875,0.20474-0.43741-0.1276-0.78613-0.46875-0.8125zm-2.5,2.375c0.0039,0.0039,0.02885-0.0005,0.03125,0,0.01011,0.0015,0.0212-0.0018,0.03125,0,0.05713,0.01072,0.14924,0.03796,0.21875,0.0625,0.08957,0.03436,0.16281,0.08504,0.25,0.125,0.04101,0.01924,0.09748,0.06018,0.09375,0.0625,0.0055,0.0066,0.02502-0.006,0.03125,0,0.01158,0.01267,0.02725,0.02915,0.03125,0.03125l-0.0625,0.03125c-0.03424,0.01106-0.06496,0.0042-0.09375,0-0.01466-0.0026-0.04421-0.02533-0.0625-0.03125-0.03127-0.01192-0.063-0.01805-0.09375-0.03125-0.009-0.0039-0.02224,0.004-0.03125,0-0.10697-0.04764-0.15166-0.07337-0.1875-0.09375-0.02641-0.0095-0.04744-0.01894-0.0625-0.03125-0.0089-0.008-0.04523-0.03761-0.0625-0.0625-0.0069-0.01,0.0055-0.02335,0-0.03125-0.003-0.0046-0.02792,0.0049-0.03125,0-0.0043-0.0061,0.00064-0.03049,0-0.03125z" fill-rule="evenodd" stroke-miterlimit="4" stroke-width="0" fill="#fa71c2"/>

  <path id="path7407" d="m29.812,27.75c0,0.51777-0.9374,0.9375-2.0938,0.9375-1.1563,0-2.0938-0.41973-2.0938-0.9375s0.9374-0.9375,2.0938-0.9375c1.1563,0,2.0938,0.41973,2.0938,0.9375z" fill-rule="evenodd" transform="translate(-22.535713,3.5803574)" stroke-miterlimit="4" stroke-width="0" fill="#f44800"/>

  <path id="path7431" d="m36.302,33.818c-2.0703,2.3465-4.9111,2.3545-7.7745,1.2266-4.0231-1.5847-6.637-5.4811-5.3086-9.8807,0.32943-1.091,1.1778-2.5262,1.9467-3.2935,1.1333-1.1307,2.4686-1.8515,3.9364-2.1247,1.4145-0.26332,2.7632-0.14733,4.0684,0.34986,0.9107,0.34692,2.4134,1.396,3.0062,2.0987,1.4234,1.6873,2.1876,3.7141,2.2102,5.8619,0.02214,2.1083-0.35536,3.7301-1.6862,5.2385z" fill-rule="evenodd" stroke-miterlimit="4" stroke-width="0" fill="url(#radialGradient7442)"/>

  <path id="path7407-0" d="m29.812,27.75c0,0.51777-0.9374,0.9375-2.0938,0.9375-1.1563,0-2.0938-0.41973-2.0938-0.9375s0.9374-0.9375,2.0938-0.9375c1.1563,0,2.0938,0.41973,2.0938,0.9375z" fill-rule="evenodd" transform="translate(-11.129464,3.9553574)" stroke-miterlimit="4" stroke-width="0" fill="#f44800"/>

 </g>

</svg>

